PathFileType	4	(X/Y/Z)	\\Move.snu.ac.kr\motion\Animal\091204_091205_Bird\091205_bird\Project 2\Capture day 2\Session 1\pigeon_028.trc
DataRate	CameraRate	NumFrames	NumMarkers	Units	OrigDataRate	OrigDataStartFrame	OrigNumFrames
240.0	240.0	21	14	mm	240.0	54	6061
Frame#	Time	14MarkersBird:Head			14MarkersBird:C_back			14MarkersBird:Spine			14MarkersBird:L-shoulder			14MarkersBird:L-elbow			14MarkersBird:L-wrist			14MarkersBird:L-hand			14MarkersBird:R-shoulder			14MarkersBird:R-elbow			14MarkersBird:R-Wrist			14MarkersBird:R-hand			14MarkersBird:C_Tail			14MarkersBird:L-Tale			14MarkersBird:R-Tale			
		X1	Y1	Z1	X2	Y2	Z2	X3	Y3	Z3	X4	Y4	Z4	X5	Y5	Z5	X6	Y6	Z6	X7	Y7	Z7	X8	Y8	Z8	X9	Y9	Z9	X10	Y10	Z10	X11	Y11	Z11	X12	Y12	Z12	X13	Y13	Z13	X14	Y14	Z14	

4348	18.112	-934.13129	1145.84863	1506.10718	-942.18866	1102.45605	1558.32300	-948.81146	1070.12854	1593.79553	-964.64929	1115.62048	1531.31409	-987.44513	1102.80322	1538.35266	-1008.25055	1103.75195	1501.85034	-1029.81506	1104.78748	1488.31091	-910.87799	1112.06042	1532.34106	-891.50269	1103.77966	1545.17273	-864.21991	1102.52991	1515.44531	-833.28009	1095.69946	1499.90149	-962.16632	965.76160	1666.10645	-1032.53711	997.60876	1600.18237	-866.83746	982.15338	1625.98279	
4349	18.117	-933.53522	1143.97522	1503.20020	-942.60870	1101.83533	1557.53870	-949.00134	1068.81812	1592.19470	-964.52167	1114.22717	1528.93701	-987.32489	1098.00171	1532.79395	-999.07263	1098.61572	1492.40955	-1014.31720	1095.25952	1472.91870	-910.82068	1111.11914	1530.62585	-891.19489	1099.26050	1538.89368	-871.84583	1096.67480	1504.06177	-847.56152	1085.35291	1480.24146	-963.84235	964.51031	1663.83264	-1032.92566	997.05316	1598.09570	-867.94183	980.76270	1625.09436	
4350	18.121	-932.90436	1141.91833	1499.72266	-942.83337	1101.19604	1556.45154	-949.14484	1067.44543	1590.51196	-964.34521	1113.03845	1526.41809	-986.46521	1093.81689	1529.01050	-989.91223	1096.69641	1486.98376	-997.16553	1090.31177	1463.83093	-910.81000	1110.38684	1528.93567	-891.77557	1095.34229	1534.39038	-880.44269	1094.08459	1496.69360	-864.58459	1079.99231	1466.73877	-965.47583	961.87494	1659.53772	-1033.35791	996.68274	1595.81616	-868.86682	979.70984	1624.08337	
4351	18.125	-932.21295	1139.63965	1495.75586	-942.81012	1100.53491	1554.79382	-949.24011	1065.99609	1588.72266	-963.98480	1112.02649	1523.82056	-985.51270	1090.51917	1527.26001	-982.98676	1097.78662	1485.51196	-982.44971	1090.43982	1460.91382	-910.79285	1109.69824	1527.13586	-892.50330	1092.30334	1532.44177	-887.50830	1094.71863	1493.87646	-880.11981	1080.07410	1460.05872	-966.92108	958.35120	1653.69238	-1033.77783	996.37469	1592.96606	-869.59235	978.91174	1622.80481	
4352	18.129	-931.43958	1137.12732	1491.44458	-942.57019	1099.85645	1552.46582	-949.28552	1064.45642	1586.80212	-963.34814	1111.09961	1521.16089	-984.82056	1088.38232	1527.52441	-979.63086	1100.99377	1487.24817	-973.30664	1094.55981	1462.54089	-910.79279	1108.94116	1525.17358	-893.01501	1090.29822	1533.23901	-891.29248	1097.76636	1495.12341	-890.50983	1084.50623	1459.21228	-968.02197	954.62927	1647.14429	-1034.11902	995.92365	1589.21838	-870.12634	978.14935	1620.97607	
4353	18.133	-930.57837	1134.41553	1486.99475	-942.16370	1099.12561	1549.53662	-949.27936	1062.81250	1584.72546	-962.44757	1110.12402	1518.40845	-984.27606	1087.65466	1529.52808	-979.82617	1105.27246	1491.10022	-970.86365	1100.51892	1466.55591	-910.83716	1108.05322	1523.01428	-893.54852	1089.43457	1536.31934	-891.50415	1102.10291	1499.27075	-894.00067	1090.92761	1462.32690	-968.66510	951.18073	1640.70007	-1034.37048	995.22382	1584.54346	-870.46100	977.18121	1618.32898	
4354	18.138	-929.65155	1131.59204	1482.66736	-941.60791	1098.25415	1546.17188	-949.21979	1061.05054	1582.46826	-961.40039	1108.97241	1515.52356	-983.33118	1088.36914	1532.72229	-982.32715	1109.92773	1496.13257	-974.32037	1106.28772	1471.41846	-910.90936	1106.98877	1520.63367	-894.79742	1089.76892	1540.67346	-889.23682	1106.83740	1505.12524	-891.00684	1096.95374	1467.93457	-968.83008	948.09821	1634.77795	-1034.58228	994.32745	1579.24377	-870.54865	975.86017	1614.71497	
4355	18.142	-928.70264	1128.78528	1478.72717	-940.95154	1097.20825	1542.55737	-949.10510	1059.15649	1580.00562	-960.36774	1107.58704	1512.48401	-981.26996	1090.14856	1536.33386	-985.25836	1114.67371	1501.84375	-981.74945	1110.78992	1476.90918	-910.99646	1105.72083	1518.09912	-897.51202	1091.15161	1545.00598	-886.35736	1111.49756	1511.87231	-883.47455	1101.38440	1475.69556	-968.59161	945.23364	1629.36169	-1034.80859	993.33917	1573.75977	-870.34924	974.18329	1610.17517	
4356	18.146	-927.76874	1126.12048	1475.35022	-940.14752	1095.92212	1538.79285	-948.93372	1057.11621	1577.31311	-959.46503	1106.01221	1509.29102	-977.61737	1092.25488	1539.52844	-986.86115	1119.33594	1507.96558	-990.73352	1113.90808	1483.96069	-911.16785	1104.28845	1515.59534	-901.90607	1093.31335	1548.53821	-884.78119	1115.89502	1518.96326	-874.15424	1104.46167	1486.09656	-968.09326	942.42670	1624.22754	-1035.05298	992.27222	1568.45129	-869.89764	972.26959	1604.96350	
4357	18.150	-926.86359	1123.71155	1472.57690	-938.83459	1094.02246	1534.91821	-948.70374	1054.91675	1574.36670	-958.72284	1104.35217	1505.96838	-972.42578	1094.02002	1541.81433	-986.09882	1123.66211	1514.05640	-998.66486	1116.16992	1493.63123	-911.54852	1102.80127	1513.32190	-907.67383	1095.75403	1550.68909	-885.77460	1119.99011	1525.72961	-866.00568	1107.37329	1499.48438	-967.50433	939.62451	1619.24255	-1035.27612	991.01660	1563.53162	-869.29236	970.29718	1599.52222	
4358	18.154	-925.98169	1121.67224	1470.34204	-937.54901	1091.86829	1531.33643	-948.41205	1052.55115	1571.15918	-958.09521	1102.69031	1502.59106	-966.06586	1095.20398	1543.19971	-982.90527	1127.41602	1519.46509	-1003.23242	1118.54272	1505.95190	-912.20459	1101.34521	1511.33105	-914.32153	1097.99402	1549.08887	-889.52863	1123.79211	1531.35095	-861.53833	1111.39124	1515.28992	-966.97650	936.87311	1614.50891	-1035.45435	989.42822	1559.13452	-868.62305	968.43073	1594.38574	
4359	18.158	-925.10730	1120.07666	1468.52649	-936.58575	1089.67212	1528.26013	-948.00220	1049.94202	1567.64331	-957.48938	1101.01404	1499.29443	-959.47394	1095.98865	1543.31616	-977.99622	1130.52991	1523.66846	-1003.14911	1122.10132	1519.61560	-913.09186	1099.86121	1509.48450	-920.66101	1102.02466	1545.06128	-895.28058	1127.25049	1535.25342	-862.29340	1117.10901	1531.92664	-966.61426	934.23346	1610.28333	-1035.61365	987.42499	1555.35571	-867.92462	966.77338	1590.04126	
4360	18.163	-924.22357	1118.88757	1466.98169	-935.92816	1087.44495	1525.63953	-947.39178	1046.95361	1563.76294	-956.81128	1099.24268	1496.22266	-954.78491	1096.99561	1542.06677	-972.42432	1133.08325	1526.43054	-998.39728	1127.32507	1532.59680	-914.05573	1098.17432	1507.58203	-927.19244	1105.26758	1539.47852	-901.87140	1130.28235	1537.30896	-868.60101	1124.23926	1547.19653	-966.47644	931.72827	1606.81836	-1035.80603	985.01056	1552.20300	-867.20679	965.31024	1586.73669	
4361	18.167	-923.34033	1117.97156	1465.56213	-935.52209	1085.18286	1523.36536	-946.77106	1043.89429	1559.97583	-956.02826	1097.30774	1493.45422	-950.87317	1097.92212	1539.30603	-967.23596	1135.14111	1527.64612	-989.96484	1133.64124	1542.91724	-914.86627	1096.14014	1505.50806	-929.43036	1105.43726	1532.83044	-908.16888	1132.80969	1537.60364	-879.48340	1131.94849	1559.00098	-966.60693	929.35840	1604.25342	-1036.07861	982.26361	1549.54114	-866.51855	963.87177	1584.34460	
4362	18.171	-922.50720	1117.17456	1464.16675	-935.31177	1082.88184	1521.32507	-946.22620	1040.89038	1556.49658	-955.20587	1095.20203	1490.98376	-947.32562	1098.49438	1535.12988	-963.37598	1136.65295	1527.28064	-979.74713	1139.82043	1549.16589	-915.21075	1093.80115	1503.28870	-929.06232	1103.96423	1526.51880	-913.06274	1134.65527	1536.29834	-892.60779	1139.40198	1565.98157	-967.04913	927.12976	1602.54077	-1036.43945	979.31116	1547.08142	-865.97198	962.18457	1582.44910	
4363	18.175	-921.77441	1116.35938	1462.74817	-935.24164	1080.53760	1519.40686	-945.76428	1037.97888	1553.32446	-954.47961	1092.96521	1488.75073	-944.52423	1098.47852	1530.05151	-961.70258	1137.41211	1525.48462	-970.48242	1144.79407	1550.88782	-914.75134	1091.34009	1501.01331	-927.51483	1102.01025	1521.05530	-915.35846	1135.48511	1533.83618	-904.44531	1146.01294	1567.96936	-967.82025	925.04858	1601.39880	-1036.85181	976.32684	1544.48340	-865.69312	960.02979	1580.65918	
4364	18.179	-921.14880	1115.41052	1461.28796	-935.25623	1078.14563	1517.49841	-945.39087	1035.21228	1550.43445	-953.97363	1090.65796	1486.66638	-942.88629	1097.68384	1524.77795	-962.86780	1137.03406	1522.57349	-965.13019	1148.09814	1548.61951	-913.35486	1088.85486	1498.74048	-924.84570	1099.93335	1516.27600	-914.05255	1134.87195	1531.11499	-911.06799	1151.14185	1566.24280	-968.87885	923.09442	1600.35205	-1037.28796	973.57428	1541.56775	-865.76581	957.38385	1578.84717	
4365	18.183	-920.59796	1114.25708	1459.77490	-935.29993	1075.70215	1515.48792	-945.11151	1032.64453	1547.80066	-953.73248	1088.33105	1484.60547	-943.12061	1096.19678	1519.67371	-967.06726	1135.06738	1518.72217	-965.82147	1149.66125	1543.37378	-911.26172	1086.29077	1496.44507	-921.13251	1097.73035	1512.02014	-908.84949	1132.35156	1529.08655	-909.68402	1153.65369	1563.03601	-970.13232	921.23364	1598.93359	-1037.76636	971.39587	1538.42139	-866.21063	954.41400	1577.10364	
4366	18.188	-920.07086	1112.89063	1458.19580	-935.31702	1073.20300	1513.26294	-944.93170	1030.32959	1545.39771	-953.68866	1086.03809	1482.40259	-945.92542	1094.17737	1514.75598	-973.86749	1131.19653	1513.70569	-972.99976	1149.25769	1535.85059	-908.92719	1083.57507	1494.00952	-916.75183	1095.26221	1508.55725	-900.33398	1127.52356	1527.93884	-899.99060	1152.03308	1560.09863	-971.46912	919.47064	1596.92773	-1038.31128	970.06317	1535.28625	-866.98053	951.36682	1575.54346	
4367	18.192	-919.52441	1111.36389	1456.53772	-935.25220	1070.64355	1510.71167	-944.85693	1028.32092	1543.19946	-953.69977	1083.85229	1479.90540	-950.20392	1091.93774	1510.25854	-982.25409	1125.37073	1506.94604	-985.19171	1146.26978	1525.94312	-906.72925	1080.69556	1491.29504	-912.20837	1092.38123	1506.48560	-889.61823	1120.22327	1526.72083	-884.07104	1145.19055	1557.35889	-972.80634	917.91028	1594.49927	-1038.89673	969.62982	1532.41260	-867.98663	948.44342	1574.18652	
4368	18.196	-918.93744	1109.75415	1454.78064	-935.05084	1068.02026	1507.72412	-944.89301	1026.67273	1541.18042	-953.60272	1081.84937	1477.06213	-955.84045	1089.25171	1504.85059	-990.84198	1117.74976	1497.80957	-999.55426	1140.02979	1512.95508	-904.80408	1077.67932	1488.22913	-908.26245	1089.03455	1506.48816	-877.93640	1110.59094	1523.88989	-865.00085	1133.11243	1552.93188	-974.13293	916.78442	1592.13342	-1039.43555	969.89697	1529.97888	-869.16492	945.74597	1572.97119	
